<?xml version="1.0" encoding="UTF-8" standalone="no"?><svg xmlns="http://www.w3.org/2000/svg" xmlns:xlink="http://www.w3.org/1999/xlink" clip-rule="evenodd" stroke-miterlimit="4.00" viewBox="0 0 1024 768"><desc>SVG generated by Keynote</desc><defs></defs><g transform="matrix(1.00, 0.00, -0.00, -1.00, 0.0, 768.0)"><path d="M 0.0 768.0 L 1024.0 768.0 L 1024.0 0.0 L 0.0 0.0 Z M 0.0 768.0 " fill="#000000"></path><g opacity="0.20"><g><clipPath id="clip-287"><path d="M 0.0 0.0 L 1024.0 0.0 L 1024.0 768.0 L 0.0 768.0 Z M 0.0 0.0 "></path></clipPath><g clip-path="url(#clip-287)"><image xlink:href="../../6E02FF41-0D1E-49F8-83FD-787116D038A3/assets/4C0052CCBC1CCD575E667C9B388A2D41.png" width="986.00" height="768.00" transform="matrix(1.12, 0.00, -0.00, -1.12, -41.0, 771.0)"></image></g></g></g><text xml:space="preserve" font-family="Futura-Medium" font-size="55.0" fill="#FEFFFF" transform="matrix(1.00, 0.00, -0.00, -1.00, 136.0, 532.0)">U</text><text xml:space="preserve" font-family="Futura-Medium" font-size="55.0" fill="#FEFFFF" transform="matrix(1.00, 0.00, -0.00, -1.00, 176.6, 532.0)">s</text><text xml:space="preserve" font-family="Futura-Medium" font-size="55.0" fill="#FEFFFF" transform="matrix(1.00, 0.00, -0.00, -1.00, 198.9, 532.0)">i</text><text xml:space="preserve" font-family="Futura-Medium" font-size="55.0" fill="#FEFFFF" transform="matrix(1.00, 0.00, -0.00, -1.00, 212.6, 532.0)">n</text><text xml:space="preserve" font-family="Futura-Medium" font-size="55.0" fill="#FEFFFF" transform="matrix(1.00, 0.00, -0.00, -1.00, 242.8, 532.0)">g</text><text xml:space="preserve" font-family="Futura-Medium" font-size="55.0" fill="#FEFFFF" transform="matrix(1.00, 0.00, -0.00, -1.00, 275.7, 532.0)"> </text><text xml:space="preserve" font-family="Futura-Medium" font-size="55.0" fill="#FEFFFF" transform="matrix(1.00, 0.00, -0.00, -1.00, 292.7, 532.0)">y</text><text xml:space="preserve" font-family="Futura-Medium" font-size="55.0" fill="#FEFFFF" transform="matrix(1.00, 0.00, -0.00, -1.00, 321.5, 532.0)">o</text><text xml:space="preserve" font-family="Futura-Medium" font-size="55.0" fill="#FEFFFF" transform="matrix(1.00, 0.00, -0.00, -1.00, 354.6, 532.0)">u</text><text xml:space="preserve" font-family="Futura-Medium" font-size="55.0" fill="#FEFFFF" transform="matrix(1.00, 0.00, -0.00, -1.00, 384.5, 532.0)">r</text><text xml:space="preserve" font-family="Futura-Medium" font-size="55.0" fill="#FEFFFF" transform="matrix(1.00, 0.00, -0.00, -1.00, 405.1, 532.0)"> </text><text xml:space="preserve" font-family="Futura-Medium" font-size="55.0" fill="#FEFFFF" transform="matrix(1.00, 0.00, -0.00, -1.00, 422.1, 532.0)">c</text><text xml:space="preserve" font-family="Futura-Medium" font-size="55.0" fill="#FEFFFF" transform="matrix(1.00, 0.00, -0.00, -1.00, 448.3, 532.0)">o</text><text xml:space="preserve" font-family="Futura-Medium" font-size="55.0" fill="#FEFFFF" transform="matrix(1.00, 0.00, -0.00, -1.00, 481.3, 532.0)">m</text><text xml:space="preserve" font-family="Futura-Medium" font-size="55.0" fill="#FEFFFF" transform="matrix(1.00, 0.00, -0.00, -1.00, 524.8, 532.0)">m</text><text xml:space="preserve" font-family="Futura-Medium" font-size="55.0" fill="#FEFFFF" transform="matrix(1.00, 0.00, -0.00, -1.00, 568.3, 532.0)">u</text><text xml:space="preserve" font-family="Futura-Medium" font-size="55.0" fill="#FEFFFF" transform="matrix(1.00, 0.00, -0.00, -1.00, 598.3, 532.0)">l</text><text xml:space="preserve" font-family="Futura-Medium" font-size="55.0" fill="#FEFFFF" transform="matrix(1.00, 0.00, -0.00, -1.00, 612.0, 532.0)">a</text><text xml:space="preserve" font-family="Futura-Medium" font-size="55.0" fill="#FEFFFF" transform="matrix(1.00, 0.00, -0.00, -1.00, 645.0, 532.0)">r</text><text xml:space="preserve" font-family="Futura-Medium" font-size="55.0" fill="#FEFFFF" transform="matrix(1.00, 0.00, -0.00, -1.00, 665.5, 532.0)"> </text><text xml:space="preserve" font-family="Futura-Medium" font-size="55.0" fill="#FEFFFF" transform="matrix(1.00, 0.00, -0.00, -1.00, 682.5, 532.0)">p</text><text xml:space="preserve" font-family="Futura-Medium" font-size="55.0" fill="#FEFFFF" transform="matrix(1.00, 0.00, -0.00, -1.00, 715.4, 532.0)">l</text><text xml:space="preserve" font-family="Futura-Medium" font-size="55.0" fill="#FEFFFF" transform="matrix(1.00, 0.00, -0.00, -1.00, 729.1, 532.0)">u</text><text xml:space="preserve" font-family="Futura-Medium" font-size="55.0" fill="#FEFFFF" transform="matrix(1.00, 0.00, -0.00, -1.00, 759.1, 532.0)">g</text><text xml:space="preserve" font-family="Futura-Medium" font-size="55.0" fill="#FEFFFF" transform="matrix(1.00, 0.00, -0.00, -1.00, 792.0, 532.0)">i</text><text xml:space="preserve" font-family="Futura-Medium" font-size="55.0" fill="#FEFFFF" transform="matrix(1.00, 0.00, -0.00, -1.00, 805.7, 532.0)">n</text><text xml:space="preserve" font-family="Futura-Medium" font-size="55.0" fill="#FEFFFF" transform="matrix(1.00, 0.00, -0.00, -1.00, 835.9, 532.0)">…</text></g></svg>