<?xml version="1.0" encoding="UTF-8" standalone="no"?><svg xmlns="http://www.w3.org/2000/svg" xmlns:xlink="http://www.w3.org/1999/xlink" clip-rule="evenodd" stroke-miterlimit="4.00" viewBox="0 0 1024 768"><desc>SVG generated by Keynote</desc><defs></defs><g transform="matrix(1.00, 0.00, -0.00, -1.00, 0.0, 768.0)"><path d="M 0.0 768.0 L 1024.0 768.0 L 1024.0 0.0 L 0.0 0.0 Z M 0.0 768.0 " fill="#000000"></path><g opacity="0.16"><g><clipPath id="clip-4"><path d="M -40.0 1364.0 L 1157.0 1364.0 L 1157.0 -1581.0 L -40.0 -1581.0 Z M -40.0 1363.8 "></path></clipPath><g clip-path="url(#clip-4)"><g><clipPath id="clip-5"><path d="M 0.0 0.0 L 1024.0 0.0 L 1024.0 768.0 L 0.0 768.0 Z M 0.0 0.0 "></path></clipPath><g clip-path="url(#clip-5)"><image xlink:href="../../39451CEE-E280-41CA-872D-216C9FC86FAF/assets/48B3F3D4B31E0F9BAACFAC10F4D50567.png" width="219.00" height="541.00" transform="matrix(5.47, 0.00, -0.00, -5.45, -40.0, 1364.0)"></image></g></g></g></g></g><text xml:space="preserve" font-family="Futura-Medium" font-size="48.0" fill="#FEFFFF" transform="matrix(1.00, 0.00, -0.00, -1.00, 344.0, 506.0)">C</text><text xml:space="preserve" font-family="Futura-Medium" font-size="48.0" fill="#FEFFFF" transform="matrix(1.00, 0.00, -0.00, -1.00, 377.4, 506.0)">O</text><text xml:space="preserve" font-family="Futura-Medium" font-size="48.0" fill="#FEFFFF" transform="matrix(1.00, 0.00, -0.00, -1.00, 420.3, 506.0)">M</text><text xml:space="preserve" font-family="Futura-Medium" font-size="48.0" fill="#FEFFFF" transform="matrix(1.00, 0.00, -0.00, -1.00, 466.5, 506.0)">M</text><text xml:space="preserve" font-family="Futura-Medium" font-size="48.0" fill="#FEFFFF" transform="matrix(1.00, 0.00, -0.00, -1.00, 512.6, 506.0)">A</text><text xml:space="preserve" font-family="Futura-Medium" font-size="48.0" fill="#FEFFFF" transform="matrix(1.00, 0.00, -0.00, -1.00, 548.2, 506.0)">N</text><text xml:space="preserve" font-family="Futura-Medium" font-size="48.0" fill="#FEFFFF" transform="matrix(1.00, 0.00, -0.00, -1.00, 588.7, 506.0)">D</text><text xml:space="preserve" font-family="Futura-Medium" font-size="48.0" fill="#FEFFFF" transform="matrix(1.00, 0.00, -0.00, -1.00, 623.5, 506.0)">E</text><text xml:space="preserve" font-family="Futura-Medium" font-size="48.0" fill="#FEFFFF" transform="matrix(1.00, 0.00, -0.00, -1.00, 650.7, 506.0)">R</text><text xml:space="preserve" font-family="Futura-Medium" font-size="36.0" fill="#FEFFFF" transform="matrix(1.00, 0.00, -0.00, -1.00, 492.0, 439.0)">b</text><text xml:space="preserve" font-family="Futura-Medium" font-size="36.0" fill="#FEFFFF" transform="matrix(1.00, 0.00, -0.00, -1.00, 512.9, 439.0)">y</text><text xml:space="preserve" font-family="Futura-Medium" font-size="36.0" fill="#FEFFFF" transform="matrix(1.00, 0.00, -0.00, -1.00, 532.5, 439.0)"> </text><text xml:space="preserve" font-family="Futura-Medium" font-size="36.0" fill="#FEFFFF" transform="matrix(1.00, 0.00, -0.00, -1.00, 380.0, 392.0)">T</text><text xml:space="preserve" font-family="Futura-Medium" font-size="36.0" fill="#FEFFFF" transform="matrix(1.00, 0.00, -0.00, -1.00, 396.3, 392.0)">J</text><text xml:space="preserve" font-family="Futura-Medium" font-size="36.0" fill="#FEFFFF" transform="matrix(1.00, 0.00, -0.00, -1.00, 411.1, 392.0)"> </text><text xml:space="preserve" font-family="Futura-Medium" font-size="36.0" fill="#FEFFFF" transform="matrix(1.00, 0.00, -0.00, -1.00, 422.2, 392.0)">H</text><text xml:space="preserve" font-family="Futura-Medium" font-size="36.0" fill="#FEFFFF" transform="matrix(1.00, 0.00, -0.00, -1.00, 448.6, 392.0)">o</text><text xml:space="preserve" font-family="Futura-Medium" font-size="36.0" fill="#FEFFFF" transform="matrix(1.00, 0.00, -0.00, -1.00, 470.3, 392.0)">l</text><text xml:space="preserve" font-family="Futura-Medium" font-size="36.0" fill="#FEFFFF" transform="matrix(1.00, 0.00, -0.00, -1.00, 479.2, 392.0)">o</text><text xml:space="preserve" font-family="Futura-Medium" font-size="36.0" fill="#FEFFFF" transform="matrix(1.00, 0.00, -0.00, -1.00, 500.2, 392.0)">w</text><text xml:space="preserve" font-family="Futura-Medium" font-size="36.0" fill="#FEFFFF" transform="matrix(1.00, 0.00, -0.00, -1.00, 527.5, 392.0)">a</text><text xml:space="preserve" font-family="Futura-Medium" font-size="36.0" fill="#FEFFFF" transform="matrix(1.00, 0.00, -0.00, -1.00, 549.4, 392.0)">y</text><text xml:space="preserve" font-family="Futura-Medium" font-size="36.0" fill="#FEFFFF" transform="matrix(1.00, 0.00, -0.00, -1.00, 568.2, 392.0)">c</text><text xml:space="preserve" font-family="Futura-Medium" font-size="36.0" fill="#FEFFFF" transform="matrix(1.00, 0.00, -0.00, -1.00, 586.3, 392.0)">h</text><text xml:space="preserve" font-family="Futura-Medium" font-size="36.0" fill="#FEFFFF" transform="matrix(1.00, 0.00, -0.00, -1.00, 606.0, 392.0)">u</text><text xml:space="preserve" font-family="Futura-Medium" font-size="36.0" fill="#FEFFFF" transform="matrix(1.00, 0.00, -0.00, -1.00, 625.7, 392.0)">k</text><text xml:space="preserve" font-family="Futura-Medium" font-size="36.0" fill="#FEFFFF" transform="matrix(1.00, 0.00, -0.00, -1.00, 219.0, 180.0)">h</text><text xml:space="preserve" font-family="Futura-Medium" font-size="36.0" fill="#FEFFFF" transform="matrix(1.00, 0.00, -0.00, -1.00, 238.8, 180.0)">t</text><text xml:space="preserve" font-family="Futura-Medium" font-size="36.0" fill="#FEFFFF" transform="matrix(1.00, 0.00, -0.00, -1.00, 248.6, 180.0)">t</text><text xml:space="preserve" font-family="Futura-Medium" font-size="36.0" fill="#FEFFFF" transform="matrix(1.00, 0.00, -0.00, -1.00, 258.5, 180.0)">p</text><text xml:space="preserve" font-family="Futura-Medium" font-size="36.0" fill="#FEFFFF" transform="matrix(1.00, 0.00, -0.00, -1.00, 280.0, 180.0)">s</text><text xml:space="preserve" font-family="Futura-Medium" font-size="36.0" fill="#FEFFFF" transform="matrix(1.00, 0.00, -0.00, -1.00, 294.6, 180.0)">:</text><text xml:space="preserve" font-family="Futura-Medium" font-size="36.0" fill="#FEFFFF" transform="matrix(1.00, 0.00, -0.00, -1.00, 305.7, 180.0)">/</text><text xml:space="preserve" font-family="Futura-Medium" font-size="36.0" fill="#FEFFFF" transform="matrix(1.00, 0.00, -0.00, -1.00, 324.4, 180.0)">/</text><text xml:space="preserve" font-family="Futura-Medium" font-size="36.0" fill="#FEFFFF" transform="matrix(1.00, 0.00, -0.00, -1.00, 343.0, 180.0)">g</text><text xml:space="preserve" font-family="Futura-Medium" font-size="36.0" fill="#FEFFFF" transform="matrix(1.00, 0.00, -0.00, -1.00, 364.6, 180.0)">i</text><text xml:space="preserve" font-family="Futura-Medium" font-size="36.0" fill="#FEFFFF" transform="matrix(1.00, 0.00, -0.00, -1.00, 373.5, 180.0)">t</text><text xml:space="preserve" font-family="Futura-Medium" font-size="36.0" fill="#FEFFFF" transform="matrix(1.00, 0.00, -0.00, -1.00, 384.1, 180.0)">h</text><text xml:space="preserve" font-family="Futura-Medium" font-size="36.0" fill="#FEFFFF" transform="matrix(1.00, 0.00, -0.00, -1.00, 403.9, 180.0)">u</text><text xml:space="preserve" font-family="Futura-Medium" font-size="36.0" fill="#FEFFFF" transform="matrix(1.00, 0.00, -0.00, -1.00, 423.5, 180.0)">b</text><text xml:space="preserve" font-family="Futura-Medium" font-size="36.0" fill="#FEFFFF" transform="matrix(1.00, 0.00, -0.00, -1.00, 445.1, 180.0)">.</text><text xml:space="preserve" font-family="Futura-Medium" font-size="36.0" fill="#FEFFFF" transform="matrix(1.00, 0.00, -0.00, -1.00, 456.2, 180.0)">c</text><text xml:space="preserve" font-family="Futura-Medium" font-size="36.0" fill="#FEFFFF" transform="matrix(1.00, 0.00, -0.00, -1.00, 473.3, 180.0)">o</text><text xml:space="preserve" font-family="Futura-Medium" font-size="36.0" fill="#FEFFFF" transform="matrix(1.00, 0.00, -0.00, -1.00, 494.9, 180.0)">m</text><text xml:space="preserve" font-family="Futura-Medium" font-size="36.0" fill="#FEFFFF" transform="matrix(1.00, 0.00, -0.00, -1.00, 523.4, 180.0)">/</text><text xml:space="preserve" font-family="Futura-Medium" font-size="36.0" fill="#FEFFFF" transform="matrix(1.00, 0.00, -0.00, -1.00, 542.1, 180.0)">t</text><text xml:space="preserve" font-family="Futura-Medium" font-size="36.0" fill="#FEFFFF" transform="matrix(1.00, 0.00, -0.00, -1.00, 551.9, 180.0)">j</text><text xml:space="preserve" font-family="Futura-Medium" font-size="36.0" fill="#FEFFFF" transform="matrix(1.00, 0.00, -0.00, -1.00, 560.9, 180.0)">/</text><text xml:space="preserve" font-family="Futura-Medium" font-size="36.0" fill="#FEFFFF" transform="matrix(1.00, 0.00, -0.00, -1.00, 579.5, 180.0)">c</text><text xml:space="preserve" font-family="Futura-Medium" font-size="36.0" fill="#FEFFFF" transform="matrix(1.00, 0.00, -0.00, -1.00, 596.7, 180.0)">o</text><text xml:space="preserve" font-family="Futura-Medium" font-size="36.0" fill="#FEFFFF" transform="matrix(1.00, 0.00, -0.00, -1.00, 618.3, 180.0)">m</text><text xml:space="preserve" font-family="Futura-Medium" font-size="36.0" fill="#FEFFFF" transform="matrix(1.00, 0.00, -0.00, -1.00, 646.8, 180.0)">m</text><text xml:space="preserve" font-family="Futura-Medium" font-size="36.0" fill="#FEFFFF" transform="matrix(1.00, 0.00, -0.00, -1.00, 675.3, 180.0)">a</text><text xml:space="preserve" font-family="Futura-Medium" font-size="36.0" fill="#FEFFFF" transform="matrix(1.00, 0.00, -0.00, -1.00, 696.9, 180.0)">n</text><text xml:space="preserve" font-family="Futura-Medium" font-size="36.0" fill="#FEFFFF" transform="matrix(1.00, 0.00, -0.00, -1.00, 716.6, 180.0)">d</text><text xml:space="preserve" font-family="Futura-Medium" font-size="36.0" fill="#FEFFFF" transform="matrix(1.00, 0.00, -0.00, -1.00, 738.2, 180.0)">e</text><text xml:space="preserve" font-family="Futura-Medium" font-size="36.0" fill="#FEFFFF" transform="matrix(1.00, 0.00, -0.00, -1.00, 758.1, 180.0)">r</text><text xml:space="preserve" font-family="Futura-Medium" font-size="36.0" fill="#FEFFFF" transform="matrix(1.00, 0.00, -0.00, -1.00, 769.7, 180.0)">.</text><text xml:space="preserve" font-family="Futura-Medium" font-size="36.0" fill="#FEFFFF" transform="matrix(1.00, 0.00, -0.00, -1.00, 780.7, 180.0)">j</text><text xml:space="preserve" font-family="Futura-Medium" font-size="36.0" fill="#FEFFFF" transform="matrix(1.00, 0.00, -0.00, -1.00, 789.7, 180.0)">s</text><text xml:space="preserve" font-family="Futura-Medium" font-size="36.0" fill="#FEFFFF" transform="matrix(1.00, 0.00, -0.00, -1.00, 239.0, 265.0)">h</text><text xml:space="preserve" font-family="Futura-Medium" font-size="36.0" fill="#FEFFFF" transform="matrix(1.00, 0.00, -0.00, -1.00, 258.8, 265.0)">t</text><text xml:space="preserve" font-family="Futura-Medium" font-size="36.0" fill="#FEFFFF" transform="matrix(1.00, 0.00, -0.00, -1.00, 268.6, 265.0)">t</text><text xml:space="preserve" font-family="Futura-Medium" font-size="36.0" fill="#FEFFFF" transform="matrix(1.00, 0.00, -0.00, -1.00, 278.5, 265.0)">p</text><text xml:space="preserve" font-family="Futura-Medium" font-size="36.0" fill="#FEFFFF" transform="matrix(1.00, 0.00, -0.00, -1.00, 300.0, 265.0)">:</text><text xml:space="preserve" font-family="Futura-Medium" font-size="36.0" fill="#FEFFFF" transform="matrix(1.00, 0.00, -0.00, -1.00, 311.1, 265.0)">/</text><text xml:space="preserve" font-family="Futura-Medium" font-size="36.0" fill="#FEFFFF" transform="matrix(1.00, 0.00, -0.00, -1.00, 329.8, 265.0)">/</text><text xml:space="preserve" font-family="Futura-Medium" font-size="36.0" fill="#FEFFFF" transform="matrix(1.00, 0.00, -0.00, -1.00, 348.4, 265.0)">t</text><text xml:space="preserve" font-family="Futura-Medium" font-size="36.0" fill="#FEFFFF" transform="matrix(1.00, 0.00, -0.00, -1.00, 358.3, 265.0)">j</text><text xml:space="preserve" font-family="Futura-Medium" font-size="36.0" fill="#FEFFFF" transform="matrix(1.00, 0.00, -0.00, -1.00, 367.3, 265.0)">.</text><text xml:space="preserve" font-family="Futura-Medium" font-size="36.0" fill="#FEFFFF" transform="matrix(1.00, 0.00, -0.00, -1.00, 378.4, 265.0)">g</text><text xml:space="preserve" font-family="Futura-Medium" font-size="36.0" fill="#FEFFFF" transform="matrix(1.00, 0.00, -0.00, -1.00, 399.9, 265.0)">i</text><text xml:space="preserve" font-family="Futura-Medium" font-size="36.0" fill="#FEFFFF" transform="matrix(1.00, 0.00, -0.00, -1.00, 408.9, 265.0)">t</text><text xml:space="preserve" font-family="Futura-Medium" font-size="36.0" fill="#FEFFFF" transform="matrix(1.00, 0.00, -0.00, -1.00, 419.4, 265.0)">h</text><text xml:space="preserve" font-family="Futura-Medium" font-size="36.0" fill="#FEFFFF" transform="matrix(1.00, 0.00, -0.00, -1.00, 439.2, 265.0)">u</text><text xml:space="preserve" font-family="Futura-Medium" font-size="36.0" fill="#FEFFFF" transform="matrix(1.00, 0.00, -0.00, -1.00, 458.8, 265.0)">b</text><text xml:space="preserve" font-family="Futura-Medium" font-size="36.0" fill="#FEFFFF" transform="matrix(1.00, 0.00, -0.00, -1.00, 480.4, 265.0)">.</text><text xml:space="preserve" font-family="Futura-Medium" font-size="36.0" fill="#FEFFFF" transform="matrix(1.00, 0.00, -0.00, -1.00, 491.5, 265.0)">i</text><text xml:space="preserve" font-family="Futura-Medium" font-size="36.0" fill="#FEFFFF" transform="matrix(1.00, 0.00, -0.00, -1.00, 500.4, 265.0)">o</text><text xml:space="preserve" font-family="Futura-Medium" font-size="36.0" fill="#FEFFFF" transform="matrix(1.00, 0.00, -0.00, -1.00, 522.1, 265.0)">/</text><text xml:space="preserve" font-family="Futura-Medium" font-size="36.0" fill="#FEFFFF" transform="matrix(1.00, 0.00, -0.00, -1.00, 540.7, 265.0)">c</text><text xml:space="preserve" font-family="Futura-Medium" font-size="36.0" fill="#FEFFFF" transform="matrix(1.00, 0.00, -0.00, -1.00, 557.9, 265.0)">o</text><text xml:space="preserve" font-family="Futura-Medium" font-size="36.0" fill="#FEFFFF" transform="matrix(1.00, 0.00, -0.00, -1.00, 579.5, 265.0)">m</text><text xml:space="preserve" font-family="Futura-Medium" font-size="36.0" fill="#FEFFFF" transform="matrix(1.00, 0.00, -0.00, -1.00, 608.0, 265.0)">m</text><text xml:space="preserve" font-family="Futura-Medium" font-size="36.0" fill="#FEFFFF" transform="matrix(1.00, 0.00, -0.00, -1.00, 636.5, 265.0)">a</text><text xml:space="preserve" font-family="Futura-Medium" font-size="36.0" fill="#FEFFFF" transform="matrix(1.00, 0.00, -0.00, -1.00, 658.0, 265.0)">n</text><text xml:space="preserve" font-family="Futura-Medium" font-size="36.0" fill="#FEFFFF" transform="matrix(1.00, 0.00, -0.00, -1.00, 677.8, 265.0)">d</text><text xml:space="preserve" font-family="Futura-Medium" font-size="36.0" fill="#FEFFFF" transform="matrix(1.00, 0.00, -0.00, -1.00, 699.4, 265.0)">e</text><text xml:space="preserve" font-family="Futura-Medium" font-size="36.0" fill="#FEFFFF" transform="matrix(1.00, 0.00, -0.00, -1.00, 719.3, 265.0)">r</text><text xml:space="preserve" font-family="Futura-Medium" font-size="36.0" fill="#FEFFFF" transform="matrix(1.00, 0.00, -0.00, -1.00, 730.8, 265.0)">.</text><text xml:space="preserve" font-family="Futura-Medium" font-size="36.0" fill="#FEFFFF" transform="matrix(1.00, 0.00, -0.00, -1.00, 741.9, 265.0)">j</text><text xml:space="preserve" font-family="Futura-Medium" font-size="36.0" fill="#FEFFFF" transform="matrix(1.00, 0.00, -0.00, -1.00, 750.9, 265.0)">s</text><text xml:space="preserve" font-family="Futura-Medium" font-size="36.0" fill="#FEFFFF" transform="matrix(1.00, 0.00, -0.00, -1.00, 765.5, 265.0)">/</text></g></svg>