<?xml version="1.0" encoding="UTF-8" standalone="no"?><svg xmlns="http://www.w3.org/2000/svg" xmlns:xlink="http://www.w3.org/1999/xlink" clip-rule="evenodd" stroke-miterlimit="4.00" viewBox="0 0 1024 768"><desc>SVG generated by Keynote</desc><defs></defs><g transform="matrix(1.00, 0.00, -0.00, -1.00, 0.0, 768.0)"><path d="M 0.0 768.0 L 1024.0 768.0 L 1024.0 0.0 L 0.0 0.0 Z M 0.0 768.0 " fill="#000000"></path><g opacity="0.16"><g><clipPath id="clip-0"><path d="M 0.0 0.0 L 1024.0 0.0 L 1024.0 768.0 L 0.0 768.0 Z M 0.0 0.0 "></path></clipPath><g clip-path="url(#clip-0)"><image xlink:href="48B3F3D4B31E0F9BAACFAC10F4D50567.png" width="219.00" height="541.00" transform="matrix(5.47, 0.00, -0.00, -5.45, -40.0, 1364.0)"></image></g></g></g><text xml:space="preserve" font-family="Futura-Medium" font-size="36.0" fill="#FEFFFF" transform="matrix(1.00, 0.00, -0.00, -1.00, 658.0, 519.0)">C</text><text xml:space="preserve" font-family="Futura-Medium" font-size="36.0" fill="#FEFFFF" transform="matrix(1.00, 0.00, -0.00, -1.00, 683.2, 519.0)">o</text><text xml:space="preserve" font-family="Futura-Medium" font-size="36.0" fill="#FEFFFF" transform="matrix(1.00, 0.00, -0.00, -1.00, 704.9, 519.0)">m</text><text xml:space="preserve" font-family="Futura-Medium" font-size="36.0" fill="#FEFFFF" transform="matrix(1.00, 0.00, -0.00, -1.00, 733.3, 519.0)">m</text><text xml:space="preserve" font-family="Futura-Medium" font-size="36.0" fill="#FEFFFF" transform="matrix(1.00, 0.00, -0.00, -1.00, 761.8, 519.0)">a</text><text xml:space="preserve" font-family="Futura-Medium" font-size="36.0" fill="#FEFFFF" transform="matrix(1.00, 0.00, -0.00, -1.00, 783.4, 519.0)">n</text><text xml:space="preserve" font-family="Futura-Medium" font-size="36.0" fill="#FEFFFF" transform="matrix(1.00, 0.00, -0.00, -1.00, 803.1, 519.0)">d</text><text xml:space="preserve" font-family="Futura-Medium" font-size="36.0" fill="#FEFFFF" transform="matrix(1.00, 0.00, -0.00, -1.00, 824.7, 519.0)">e</text><text xml:space="preserve" font-family="Futura-Medium" font-size="36.0" fill="#FEFFFF" transform="matrix(1.00, 0.00, -0.00, -1.00, 844.6, 519.0)">r</text><text xml:space="preserve" font-family="Futura-Medium" font-size="36.0" fill="#FEFFFF" transform="matrix(1.00, 0.00, -0.00, -1.00, 858.1, 519.0)"> </text><text xml:space="preserve" font-family="Futura-Medium" font-size="36.0" fill="#FEFFFF" transform="matrix(1.00, 0.00, -0.00, -1.00, 747.0, 472.0)">+</text><text xml:space="preserve" font-family="Futura-Medium" font-size="36.0" fill="#FEFFFF" transform="matrix(1.00, 0.00, -0.00, -1.00, 769.2, 472.0)"> </text><text xml:space="preserve" font-family="Futura-Medium" font-size="36.0" fill="#FEFFFF" transform="matrix(1.00, 0.00, -0.00, -1.00, 674.0, 425.0)">C</text><text xml:space="preserve" font-family="Futura-Medium" font-size="36.0" fill="#FEFFFF" transform="matrix(1.00, 0.00, -0.00, -1.00, 699.2, 425.0)">o</text><text xml:space="preserve" font-family="Futura-Medium" font-size="36.0" fill="#FEFFFF" transform="matrix(1.00, 0.00, -0.00, -1.00, 720.9, 425.0)">m</text><text xml:space="preserve" font-family="Futura-Medium" font-size="36.0" fill="#FEFFFF" transform="matrix(1.00, 0.00, -0.00, -1.00, 749.3, 425.0)">m</text><text xml:space="preserve" font-family="Futura-Medium" font-size="36.0" fill="#FEFFFF" transform="matrix(1.00, 0.00, -0.00, -1.00, 777.8, 425.0)">u</text><text xml:space="preserve" font-family="Futura-Medium" font-size="36.0" fill="#FEFFFF" transform="matrix(1.00, 0.00, -0.00, -1.00, 797.4, 425.0)">l</text><text xml:space="preserve" font-family="Futura-Medium" font-size="36.0" fill="#FEFFFF" transform="matrix(1.00, 0.00, -0.00, -1.00, 806.4, 425.0)">a</text><text xml:space="preserve" font-family="Futura-Medium" font-size="36.0" fill="#FEFFFF" transform="matrix(1.00, 0.00, -0.00, -1.00, 828.0, 425.0)">r</text><text xml:space="preserve" font-family="Futura-Medium" font-size="36.0" fill="#FEFFFF" transform="matrix(1.00, 0.00, -0.00, -1.00, 841.4, 425.0)"> </text><text xml:space="preserve" font-family="Futura-Medium" font-size="36.0" fill="#FEFFFF" transform="matrix(1.00, 0.00, -0.00, -1.00, 747.0, 378.0)">+</text><text xml:space="preserve" font-family="Futura-Medium" font-size="36.0" fill="#FEFFFF" transform="matrix(1.00, 0.00, -0.00, -1.00, 769.2, 378.0)"> </text><text xml:space="preserve" font-family="Futura-Medium" font-size="36.0" fill="#FEFFFF" transform="matrix(1.00, 0.00, -0.00, -1.00, 612.0, 331.0)">C</text><text xml:space="preserve" font-family="Futura-Medium" font-size="36.0" fill="#FEFFFF" transform="matrix(1.00, 0.00, -0.00, -1.00, 637.2, 331.0)">o</text><text xml:space="preserve" font-family="Futura-Medium" font-size="36.0" fill="#FEFFFF" transform="matrix(1.00, 0.00, -0.00, -1.00, 658.9, 331.0)">m</text><text xml:space="preserve" font-family="Futura-Medium" font-size="36.0" fill="#FEFFFF" transform="matrix(1.00, 0.00, -0.00, -1.00, 687.3, 331.0)">m</text><text xml:space="preserve" font-family="Futura-Medium" font-size="36.0" fill="#FEFFFF" transform="matrix(1.00, 0.00, -0.00, -1.00, 715.8, 331.0)">u</text><text xml:space="preserve" font-family="Futura-Medium" font-size="36.0" fill="#FEFFFF" transform="matrix(1.00, 0.00, -0.00, -1.00, 735.4, 331.0)">l</text><text xml:space="preserve" font-family="Futura-Medium" font-size="36.0" fill="#FEFFFF" transform="matrix(1.00, 0.00, -0.00, -1.00, 744.4, 331.0)">a</text><text xml:space="preserve" font-family="Futura-Medium" font-size="36.0" fill="#FEFFFF" transform="matrix(1.00, 0.00, -0.00, -1.00, 766.0, 331.0)">r</text><text xml:space="preserve" font-family="Futura-Medium" font-size="36.0" fill="#FEFFFF" transform="matrix(1.00, 0.00, -0.00, -1.00, 779.4, 331.0)"> </text><text xml:space="preserve" font-family="Futura-Medium" font-size="36.0" fill="#FEFFFF" transform="matrix(1.00, 0.00, -0.00, -1.00, 790.5, 331.0)">P</text><text xml:space="preserve" font-family="Futura-Medium" font-size="36.0" fill="#FEFFFF" transform="matrix(1.00, 0.00, -0.00, -1.00, 810.0, 331.0)">l</text><text xml:space="preserve" font-family="Futura-Medium" font-size="36.0" fill="#FEFFFF" transform="matrix(1.00, 0.00, -0.00, -1.00, 818.9, 331.0)">u</text><text xml:space="preserve" font-family="Futura-Medium" font-size="36.0" fill="#FEFFFF" transform="matrix(1.00, 0.00, -0.00, -1.00, 838.5, 331.0)">g</text><text xml:space="preserve" font-family="Futura-Medium" font-size="36.0" fill="#FEFFFF" transform="matrix(1.00, 0.00, -0.00, -1.00, 860.1, 331.0)">i</text><text xml:space="preserve" font-family="Futura-Medium" font-size="36.0" fill="#FEFFFF" transform="matrix(1.00, 0.00, -0.00, -1.00, 869.0, 331.0)">n</text><text xml:space="preserve" font-family="Futura-Medium" font-size="36.0" fill="#FEFFFF" transform="matrix(1.00, 0.00, -0.00, -1.00, 888.8, 331.0)">s</text><text xml:space="preserve" font-family="Futura-Medium" font-size="36.0" fill="#FEFFFF" transform="matrix(1.00, 0.00, -0.00, -1.00, 903.4, 331.0)"> </text><text xml:space="preserve" font-family="Futura-Medium" font-size="36.0" fill="#FEFFFF" transform="matrix(1.00, 0.00, -0.00, -1.00, 747.0, 284.0)">=</text><text xml:space="preserve" font-family="Futura-Medium" font-size="36.0" fill="#FEFFFF" transform="matrix(1.00, 0.00, -0.00, -1.00, 769.2, 284.0)"> </text><text xml:space="preserve" font-family="Futura-Medium" font-size="36.0" fill="#FEFFFF" transform="matrix(1.00, 0.00, -0.00, -1.00, 690.0, 190.0)">Y</text><text xml:space="preserve" font-family="Futura-Medium" font-size="36.0" fill="#FEFFFF" transform="matrix(1.00, 0.00, -0.00, -1.00, 709.2, 190.0)">o</text><text xml:space="preserve" font-family="Futura-Medium" font-size="36.0" fill="#FEFFFF" transform="matrix(1.00, 0.00, -0.00, -1.00, 730.8, 190.0)">u</text><text xml:space="preserve" font-family="Futura-Medium" font-size="36.0" fill="#FEFFFF" transform="matrix(1.00, 0.00, -0.00, -1.00, 750.4, 190.0)">r</text><text xml:space="preserve" font-family="Futura-Medium" font-size="36.0" fill="#FEFFFF" transform="matrix(1.00, 0.00, -0.00, -1.00, 763.9, 190.0)"> </text><text xml:space="preserve" font-family="Futura-Medium" font-size="36.0" fill="#FEFFFF" transform="matrix(1.00, 0.00, -0.00, -1.00, 775.0, 190.0)">C</text><text xml:space="preserve" font-family="Futura-Medium" font-size="36.0" fill="#FEFFFF" transform="matrix(1.00, 0.00, -0.00, -1.00, 800.2, 190.0)">L</text><text xml:space="preserve" font-family="Futura-Medium" font-size="36.0" fill="#FEFFFF" transform="matrix(1.00, 0.00, -0.00, -1.00, 816.2, 190.0)">I</text><image xlink:href="C31421CA7EDBE65BC616B6D79674DC1C.png" width="294.00" height="540.00" transform="matrix(1.11, 0.00, -0.00, -1.11, 108.0, 684.0)"></image></g></svg>