<?xml version="1.0" encoding="UTF-8" standalone="no"?><svg xmlns="http://www.w3.org/2000/svg" xmlns:xlink="http://www.w3.org/1999/xlink" clip-rule="evenodd" stroke-miterlimit="4.00" viewBox="0 0 1024 768"><desc>SVG generated by Keynote</desc><defs></defs><g transform="matrix(1.00, 0.00, -0.00, -1.00, 0.0, 768.0)"><path d="M 0.0 768.0 L 1024.0 768.0 L 1024.0 0.0 L 0.0 0.0 Z M 0.0 768.0 " fill="#000000"></path><text xml:space="preserve" font-family="Futura-Medium" font-size="63.0" fill="#FEFFFF" transform="matrix(1.00, 0.00, -0.00, -1.00, 581.0, 360.0)">C</text><text xml:space="preserve" font-family="Futura-Medium" font-size="63.0" fill="#FEFFFF" transform="matrix(1.00, 0.00, -0.00, -1.00, 625.1, 360.0)">o</text><text xml:space="preserve" font-family="Futura-Medium" font-size="63.0" fill="#FEFFFF" transform="matrix(1.00, 0.00, -0.00, -1.00, 663.0, 360.0)">m</text><text xml:space="preserve" font-family="Futura-Medium" font-size="63.0" fill="#FEFFFF" transform="matrix(1.00, 0.00, -0.00, -1.00, 712.8, 360.0)">m</text><text xml:space="preserve" font-family="Futura-Medium" font-size="63.0" fill="#FEFFFF" transform="matrix(1.00, 0.00, -0.00, -1.00, 762.7, 360.0)">u</text><text xml:space="preserve" font-family="Futura-Medium" font-size="63.0" fill="#FEFFFF" transform="matrix(1.00, 0.00, -0.00, -1.00, 797.0, 360.0)">l</text><text xml:space="preserve" font-family="Futura-Medium" font-size="63.0" fill="#FEFFFF" transform="matrix(1.00, 0.00, -0.00, -1.00, 812.7, 360.0)">a</text><text xml:space="preserve" font-family="Futura-Medium" font-size="63.0" fill="#FEFFFF" transform="matrix(1.00, 0.00, -0.00, -1.00, 850.4, 360.0)">r</text><text xml:space="preserve" font-family="Futura-Medium" font-size="40.0" fill="#FEFFFF" transform="matrix(1.00, 0.00, -0.00, -1.00, 555.0, 267.0)">P</text><text xml:space="preserve" font-family="Futura-Medium" font-size="40.0" fill="#FEFFFF" transform="matrix(1.00, 0.00, -0.00, -1.00, 576.6, 267.0)">l</text><text xml:space="preserve" font-family="Futura-Medium" font-size="40.0" fill="#FEFFFF" transform="matrix(1.00, 0.00, -0.00, -1.00, 586.6, 267.0)">u</text><text xml:space="preserve" font-family="Futura-Medium" font-size="40.0" fill="#FEFFFF" transform="matrix(1.00, 0.00, -0.00, -1.00, 608.4, 267.0)">g</text><text xml:space="preserve" font-family="Futura-Medium" font-size="40.0" fill="#FEFFFF" transform="matrix(1.00, 0.00, -0.00, -1.00, 632.3, 267.0)">g</text><text xml:space="preserve" font-family="Futura-Medium" font-size="40.0" fill="#FEFFFF" transform="matrix(1.00, 0.00, -0.00, -1.00, 656.2, 267.0)">a</text><text xml:space="preserve" font-family="Futura-Medium" font-size="40.0" fill="#FEFFFF" transform="matrix(1.00, 0.00, -0.00, -1.00, 680.2, 267.0)">b</text><text xml:space="preserve" font-family="Futura-Medium" font-size="40.0" fill="#FEFFFF" transform="matrix(1.00, 0.00, -0.00, -1.00, 704.2, 267.0)">l</text><text xml:space="preserve" font-family="Futura-Medium" font-size="40.0" fill="#FEFFFF" transform="matrix(1.00, 0.00, -0.00, -1.00, 714.1, 267.0)">e</text><text xml:space="preserve" font-family="Futura-Medium" font-size="40.0" fill="#FEFFFF" transform="matrix(1.00, 0.00, -0.00, -1.00, 736.2, 267.0)"> </text><text xml:space="preserve" font-family="Futura-Medium" font-size="40.0" fill="#FEFFFF" transform="matrix(1.00, 0.00, -0.00, -1.00, 748.6, 267.0)">C</text><text xml:space="preserve" font-family="Futura-Medium" font-size="40.0" fill="#FEFFFF" transform="matrix(1.00, 0.00, -0.00, -1.00, 776.6, 267.0)">L</text><text xml:space="preserve" font-family="Futura-Medium" font-size="40.0" fill="#FEFFFF" transform="matrix(1.00, 0.00, -0.00, -1.00, 794.3, 267.0)">I</text><text xml:space="preserve" font-family="Futura-Medium" font-size="40.0" fill="#FEFFFF" transform="matrix(1.00, 0.00, -0.00, -1.00, 806.1, 267.0)"> </text><text xml:space="preserve" font-family="Futura-Medium" font-size="40.0" fill="#FEFFFF" transform="matrix(1.00, 0.00, -0.00, -1.00, 818.5, 267.0)">t</text><text xml:space="preserve" font-family="Futura-Medium" font-size="40.0" fill="#FEFFFF" transform="matrix(1.00, 0.00, -0.00, -1.00, 829.7, 267.0)">o</text><text xml:space="preserve" font-family="Futura-Medium" font-size="40.0" fill="#FEFFFF" transform="matrix(1.00, 0.00, -0.00, -1.00, 853.7, 267.0)">o</text><text xml:space="preserve" font-family="Futura-Medium" font-size="40.0" fill="#FEFFFF" transform="matrix(1.00, 0.00, -0.00, -1.00, 877.8, 267.0)">l</text><text xml:space="preserve" font-family="Futura-Medium" font-size="40.0" fill="#FEFFFF" transform="matrix(1.00, 0.00, -0.00, -1.00, 887.7, 267.0)"> </text><g><clipPath id="clip-190"><path d="M 152.0 652.0 L 506.0 652.0 L 506.0 116.0 L 152.0 116.0 Z M 151.6 651.9 "></path></clipPath><g clip-path="url(#clip-190)"><g><clipPath id="clip-191"><path d="M 311.7 116.5 C 298.1 118.1 285.9 121.5 280.1 125.3 C 276.5 127.6 275.9 128.4 275.9 131.7 C 275.9 136.6 285.1 141.5 299.7 144.3 C 310.1 146.3 309.6 146.1 308.2 148.0 C 307.5 148.9 305.7 152.2 304.2 155.4 C 302.4 159.2 300.9 161.3 300.2 161.3 C 299.6 161.3 297.7 162.1 296.0 163.1 C 291.9 165.5 289.0 170.6 287.8 177.5 C 286.9 182.7 286.9 182.7 283.9 184.0 C 273.3 188.6 259.5 201.5 255.7 210.5 C 252.9 217.0 251.8 227.0 253.2 233.2 C 253.6 234.7 254.1 237.7 254.3 239.9 C 254.6 242.0 255.1 244.9 255.4 246.2 C 256.3 249.7 260.3 270.9 260.5 273.4 C 260.7 275.4 260.5 275.5 257.1 276.3 C 255.2 276.8 253.3 277.3 252.9 277.6 C 252.5 277.8 251.1 276.9 249.8 275.6 L 247.0 273.3 L 247.0 264.5 C 246.8 255.5 245.7 245.3 243.4 234.9 C 242.6 231.6 241.8 227.6 241.6 226.1 C 240.6 219.9 236.1 210.1 231.6 204.0 L 227.2 198.1 L 228.3 195.4 C 229.2 193.5 229.5 190.7 229.5 184.7 C 229.6 176.7 229.5 176.4 227.0 171.2 C 223.7 164.6 220.5 160.8 215.0 157.1 C 209.8 153.6 205.1 152.1 198.2 151.6 C 192.3 151.2 188.5 152.0 181.9 155.1 C 175.1 158.3 170.3 163.2 166.7 170.3 L 164.0 176.4 L 164.0 184.6 C 164.0 192.0 163.9 193.3 165.7 197.5 L 167.7 202.1 L 165.9 205.2 C 161.8 212.4 164.4 225.8 172.6 240.0 C 181.6 255.5 197.5 270.0 212.7 276.7 C 215.3 277.9 218.0 279.1 218.6 279.4 C 219.2 279.7 221.8 280.6 224.5 281.3 C 227.9 282.3 229.5 283.1 229.9 284.1 C 230.2 284.9 232.9 287.9 235.9 290.8 C 239.8 294.8 241.2 296.6 241.2 298.0 C 241.2 299.0 241.9 301.7 242.7 304.0 C 244.3 308.7 246.8 311.3 252.6 314.0 C 256.3 315.8 260.6 316.3 266.6 315.5 C 267.9 315.3 268.4 315.7 268.6 317.0 C 269.1 320.2 271.2 323.5 274.6 326.5 C 277.2 328.9 277.8 329.8 277.1 330.4 C 276.7 330.8 273.1 331.9 269.2 332.9 C 258.5 335.7 240.7 342.9 230.8 348.5 C 210.4 360.1 195.4 372.9 183.2 389.0 C 179.9 393.4 178.4 394.9 176.8 395.2 C 175.6 395.4 173.8 396.3 172.8 397.0 C 171.8 397.8 170.5 398.5 169.9 398.5 C 167.9 398.5 164.2 401.4 162.1 404.7 C 150.3 423.0 148.0 463.3 157.3 487.9 C 159.8 494.5 164.3 501.4 167.1 502.7 C 173.0 505.5 176.3 506.8 177.4 506.8 C 178.1 506.8 180.6 509.5 183.6 513.6 C 194.1 528.1 211.7 543.0 230.7 553.5 C 243.4 560.6 261.1 567.6 275.2 571.2 C 282.9 573.2 300.2 575.9 311.3 576.9 C 316.6 577.4 321.1 577.9 321.3 578.2 C 321.6 578.4 322.2 583.4 322.6 589.3 C 323.0 595.1 323.7 604.2 324.1 609.4 C 324.5 614.7 324.9 619.9 325.0 621.1 C 325.1 622.9 324.7 623.4 321.6 625.0 C 319.6 626.0 317.1 628.1 315.8 629.9 C 313.8 632.4 313.4 633.5 313.5 636.6 C 313.5 645.2 320.2 651.9 328.7 651.9 C 337.6 651.9 344.5 644.4 343.7 635.6 C 343.3 631.1 340.5 627.5 335.8 625.1 L 332.0 623.4 L 333.0 617.6 C 333.2 614.5 333.6 606.0 334.0 598.8 C 334.4 591.6 334.7 584.0 335.0 581.8 L 336.0 577.9 L 347.5 576.7 C 361.8 575.3 377.5 572.6 385.8 570.2 C 395.5 567.4 414.2 560.2 419.8 557.2 C 433.4 549.9 437.6 547.3 445.4 541.5 C 455.9 533.7 466.8 523.0 473.5 513.8 C 476.6 509.6 479.2 506.8 479.9 506.8 C 481.1 506.8 485.7 505.0 490.4 502.5 C 494.4 500.5 498.4 493.1 501.7 481.9 C 506.8 464.6 507.1 441.2 502.5 422.9 C 499.0 409.3 492.4 398.5 487.5 398.5 C 486.8 398.5 485.5 397.8 484.5 397.0 C 483.5 396.3 481.7 395.4 480.5 395.2 C 478.9 394.9 477.3 393.4 473.7 388.6 C 462.4 373.9 450.0 362.8 433.1 352.5 C 419.5 344.1 401.8 336.4 388.1 332.9 C 384.2 331.9 380.8 330.9 380.5 330.7 C 380.1 330.5 381.8 328.6 384.1 326.5 C 387.3 323.7 388.7 321.7 389.8 319.0 C 390.5 316.9 391.4 315.3 391.7 315.3 C 392.1 315.3 393.8 315.6 395.6 315.9 C 399.8 316.6 405.8 315.0 410.3 312.0 C 412.5 310.4 413.9 308.6 415.4 305.5 C 416.6 303.1 417.5 300.4 417.5 299.6 C 417.5 298.6 419.9 295.6 424.1 291.3 C 427.8 287.5 431.0 284.0 431.2 283.4 C 431.4 282.8 432.4 282.4 433.4 282.4 C 435.4 282.4 442.9 279.6 449.0 276.5 C 467.3 267.2 481.8 252.8 490.7 234.9 C 494.8 226.8 495.6 223.3 495.7 214.7 C 495.7 207.9 495.5 206.6 494.2 204.5 C 492.8 202.3 492.7 201.8 493.6 200.7 C 495.0 198.7 496.8 189.9 496.8 185.0 C 496.8 173.8 492.6 164.9 484.3 158.9 C 470.5 148.7 453.6 149.6 440.9 161.0 C 437.5 164.1 432.4 172.7 431.3 177.1 C 430.3 181.4 430.8 191.4 432.2 195.1 L 433.6 198.7 L 430.9 201.3 C 426.0 206.2 420.5 218.9 416.8 234.5 C 415.3 240.9 412.9 260.0 413.0 266.6 L 413.0 273.1 L 410.6 275.8 L 407.9 278.5 L 405.1 277.3 C 403.5 276.6 401.4 276.0 400.4 276.0 C 399.3 276.0 398.3 275.7 398.1 275.5 C 397.9 275.0 399.2 267.4 401.9 254.4 C 403.8 245.0 405.7 232.6 406.0 227.4 C 406.3 220.8 404.6 213.0 401.3 207.0 C 397.4 199.6 383.9 187.9 374.9 184.0 C 370.9 182.3 370.5 181.7 369.1 175.6 C 368.5 172.8 367.1 169.2 366.1 167.6 C 364.1 164.7 359.3 161.3 357.1 161.3 C 356.3 161.3 355.1 159.5 353.4 155.9 C 352.1 153.0 350.3 149.8 349.5 148.7 C 348.7 147.7 348.3 146.7 348.6 146.4 C 348.9 146.1 352.6 145.2 356.9 144.4 C 366.2 142.5 374.4 139.4 378.0 136.5 C 380.2 134.7 380.7 133.8 380.7 131.7 C 380.7 128.1 379.4 126.5 374.2 123.9 C 363.2 118.4 348.4 115.9 327.7 116.1 C 320.1 116.1 312.8 116.3 311.7 116.5 "></path></clipPath><g clip-path="url(#clip-191)"><image xlink:href="1C5F21DB4DBFC16D6ECE9EFE9A35F28E.png" width="357.00" height="540.00" transform="matrix(1.00, 0.00, -0.00, -1.00, 150.0, 654.0)"></image></g></g></g></g></g></svg>