<?xml version="1.0" encoding="UTF-8" standalone="no"?><svg xmlns="http://www.w3.org/2000/svg" xmlns:xlink="http://www.w3.org/1999/xlink" clip-rule="evenodd" stroke-miterlimit="4.00" viewBox="0 0 1024 768"><desc>SVG generated by Keynote</desc><defs></defs><g transform="matrix(1.00, 0.00, -0.00, -1.00, 0.0, 768.0)"><path d="M 0.0 768.0 L 1024.0 768.0 L 1024.0 0.0 L 0.0 0.0 Z M 0.0 768.0 " fill="#000000"></path><g opacity="0.20"><g><clipPath id="clip-82"><path d="M 0.0 0.0 L 1024.0 0.0 L 1024.0 768.0 L 0.0 768.0 Z M 0.0 0.0 "></path></clipPath><g clip-path="url(#clip-82)"><image xlink:href="4C0052CCBC1CCD575E667C9B388A2D41.png" width="986.00" height="768.00" transform="matrix(1.12, 0.00, -0.00, -1.12, -41.0, 771.0)"></image></g></g></g><text xml:space="preserve" font-family="Futura-Medium" font-size="55.0" fill="#FEFFFF" transform="matrix(1.00, 0.00, -0.00, -1.00, 46.0, 533.0)">C</text><text xml:space="preserve" font-family="Futura-Medium" font-size="55.0" fill="#FEFFFF" transform="matrix(1.00, 0.00, -0.00, -1.00, 84.5, 533.0)">r</text><text xml:space="preserve" font-family="Futura-Medium" font-size="55.0" fill="#FEFFFF" transform="matrix(1.00, 0.00, -0.00, -1.00, 104.7, 533.0)">e</text><text xml:space="preserve" font-family="Futura-Medium" font-size="55.0" fill="#FEFFFF" transform="matrix(1.00, 0.00, -0.00, -1.00, 135.2, 533.0)">a</text><text xml:space="preserve" font-family="Futura-Medium" font-size="55.0" fill="#FEFFFF" transform="matrix(1.00, 0.00, -0.00, -1.00, 168.1, 533.0)">t</text><text xml:space="preserve" font-family="Futura-Medium" font-size="55.0" fill="#FEFFFF" transform="matrix(1.00, 0.00, -0.00, -1.00, 183.2, 533.0)">i</text><text xml:space="preserve" font-family="Futura-Medium" font-size="55.0" fill="#FEFFFF" transform="matrix(1.00, 0.00, -0.00, -1.00, 196.9, 533.0)">n</text><text xml:space="preserve" font-family="Futura-Medium" font-size="55.0" fill="#FEFFFF" transform="matrix(1.00, 0.00, -0.00, -1.00, 227.0, 533.0)">g</text><text xml:space="preserve" font-family="Futura-Medium" font-size="55.0" fill="#FEFFFF" transform="matrix(1.00, 0.00, -0.00, -1.00, 259.9, 533.0)"> </text><text xml:space="preserve" font-family="Futura-Medium" font-size="55.0" fill="#FEFFFF" transform="matrix(1.00, 0.00, -0.00, -1.00, 276.9, 533.0)">y</text><text xml:space="preserve" font-family="Futura-Medium" font-size="55.0" fill="#FEFFFF" transform="matrix(1.00, 0.00, -0.00, -1.00, 305.8, 533.0)">o</text><text xml:space="preserve" font-family="Futura-Medium" font-size="55.0" fill="#FEFFFF" transform="matrix(1.00, 0.00, -0.00, -1.00, 338.8, 533.0)">u</text><text xml:space="preserve" font-family="Futura-Medium" font-size="55.0" fill="#FEFFFF" transform="matrix(1.00, 0.00, -0.00, -1.00, 368.8, 533.0)">r</text><text xml:space="preserve" font-family="Futura-Medium" font-size="55.0" fill="#FEFFFF" transform="matrix(1.00, 0.00, -0.00, -1.00, 389.4, 533.0)"> </text><text xml:space="preserve" font-family="Futura-Medium" font-size="55.0" fill="#FEFFFF" transform="matrix(1.00, 0.00, -0.00, -1.00, 406.3, 533.0)">ﬁ</text><text xml:space="preserve" font-family="Futura-Medium" font-size="55.0" fill="#FEFFFF" transform="matrix(1.00, 0.00, -0.00, -1.00, 435.5, 533.0)">r</text><text xml:space="preserve" font-family="Futura-Medium" font-size="55.0" fill="#FEFFFF" transform="matrix(1.00, 0.00, -0.00, -1.00, 456.1, 533.0)">s</text><text xml:space="preserve" font-family="Futura-Medium" font-size="55.0" fill="#FEFFFF" transform="matrix(1.00, 0.00, -0.00, -1.00, 478.4, 533.0)">t</text><text xml:space="preserve" font-family="Futura-Medium" font-size="55.0" fill="#FEFFFF" transform="matrix(1.00, 0.00, -0.00, -1.00, 493.4, 533.0)"> </text><text xml:space="preserve" font-family="Futura-Medium" font-size="55.0" fill="#FEFFFF" transform="matrix(1.00, 0.00, -0.00, -1.00, 510.4, 533.0)">c</text><text xml:space="preserve" font-family="Futura-Medium" font-size="55.0" fill="#FEFFFF" transform="matrix(1.00, 0.00, -0.00, -1.00, 536.6, 533.0)">o</text><text xml:space="preserve" font-family="Futura-Medium" font-size="55.0" fill="#FEFFFF" transform="matrix(1.00, 0.00, -0.00, -1.00, 569.6, 533.0)">m</text><text xml:space="preserve" font-family="Futura-Medium" font-size="55.0" fill="#FEFFFF" transform="matrix(1.00, 0.00, -0.00, -1.00, 613.1, 533.0)">m</text><text xml:space="preserve" font-family="Futura-Medium" font-size="55.0" fill="#FEFFFF" transform="matrix(1.00, 0.00, -0.00, -1.00, 656.7, 533.0)">u</text><text xml:space="preserve" font-family="Futura-Medium" font-size="55.0" fill="#FEFFFF" transform="matrix(1.00, 0.00, -0.00, -1.00, 686.6, 533.0)">l</text><text xml:space="preserve" font-family="Futura-Medium" font-size="55.0" fill="#FEFFFF" transform="matrix(1.00, 0.00, -0.00, -1.00, 700.3, 533.0)">a</text><text xml:space="preserve" font-family="Futura-Medium" font-size="55.0" fill="#FEFFFF" transform="matrix(1.00, 0.00, -0.00, -1.00, 733.3, 533.0)">r</text><text xml:space="preserve" font-family="Futura-Medium" font-size="55.0" fill="#FEFFFF" transform="matrix(1.00, 0.00, -0.00, -1.00, 753.8, 533.0)"> </text><text xml:space="preserve" font-family="Futura-Medium" font-size="55.0" fill="#FEFFFF" transform="matrix(1.00, 0.00, -0.00, -1.00, 770.8, 533.0)">p</text><text xml:space="preserve" font-family="Futura-Medium" font-size="55.0" fill="#FEFFFF" transform="matrix(1.00, 0.00, -0.00, -1.00, 803.7, 533.0)">l</text><text xml:space="preserve" font-family="Futura-Medium" font-size="55.0" fill="#FEFFFF" transform="matrix(1.00, 0.00, -0.00, -1.00, 817.4, 533.0)">u</text><text xml:space="preserve" font-family="Futura-Medium" font-size="55.0" fill="#FEFFFF" transform="matrix(1.00, 0.00, -0.00, -1.00, 847.4, 533.0)">g</text><text xml:space="preserve" font-family="Futura-Medium" font-size="55.0" fill="#FEFFFF" transform="matrix(1.00, 0.00, -0.00, -1.00, 880.3, 533.0)">i</text><text xml:space="preserve" font-family="Futura-Medium" font-size="55.0" fill="#FEFFFF" transform="matrix(1.00, 0.00, -0.00, -1.00, 894.0, 533.0)">n</text><text xml:space="preserve" font-family="Futura-Medium" font-size="55.0" fill="#FEFFFF" transform="matrix(1.00, 0.00, -0.00, -1.00, 924.2, 533.0)">…</text></g></svg>